<?xml version="1.0" encoding="UTF-8" standalone="no"?>
<!DOCTYPE svg PUBLIC "-//W3C//DTD SVG 1.1//EN"
 "http://www.w3.org/Graphics/SVG/1.1/DTD/svg11.dtd">
<!-- Generated by graphviz version 2.47.0 (20210316.0004)
 -->
<!-- Title: dependencies Pages: 1 -->
<svg width="1175pt" height="284pt"
 viewBox="0.00 0.00 1175.00 284.00" xmlns="http://www.w3.org/2000/svg" xmlns:xlink="http://www.w3.org/1999/xlink">
<g id="graph0" class="graph" transform="scale(1 1) rotate(0) translate(4 280)">
<title>dependencies</title>
<polygon fill="white" stroke="transparent" points="-4,4 -4,-280 1171,-280 1171,4 -4,4"/>
<text text-anchor="start" x="562.51" y="-42.4" font-family="Times-12" font-weight="bold" font-size="14.00">Legend</text>
<polygon fill="#ffffb3" stroke="transparent" points="349.5,-10 349.5,-30 369.5,-30 369.5,-10 349.5,-10"/>
<text text-anchor="start" x="373.13" y="-15.4" font-family="Times-12" font-size="14.00"> &#160;Declarations</text>
<polygon fill="#8dd3c7" stroke="transparent" points="462.5,-10 462.5,-30 482.5,-30 482.5,-10 462.5,-10"/>
<text text-anchor="start" x="486.23" y="-15.4" font-family="Times-12" font-size="14.00"> &#160;Module</text>
<polygon fill="#80b1d3" stroke="transparent" points="548.5,-10 548.5,-30 568.5,-30 568.5,-10 548.5,-10"/>
<text text-anchor="start" x="572.28" y="-15.4" font-family="Times-12" font-size="14.00"> &#160;Bootstrap</text>
<polygon fill="#fdb462" stroke="transparent" points="645.5,-10 645.5,-30 665.5,-30 665.5,-10 645.5,-10"/>
<text text-anchor="start" x="669.17" y="-15.4" font-family="Times-12" font-size="14.00"> &#160;Providers</text>
<polygon fill="#fb8072" stroke="transparent" points="741.5,-10 741.5,-30 761.5,-30 761.5,-10 741.5,-10"/>
<text text-anchor="start" x="765.23" y="-15.4" font-family="Times-12" font-size="14.00"> &#160;Exports</text>
<g id="clust1" class="cluster">
<title>cluster_AppModule</title>
<polygon fill="none" stroke="black" stroke-dasharray="1,5" points="8,-70 8,-268 1159,-268 1159,-70 8,-70"/>
</g>
<g id="clust10" class="cluster">
<title>cluster_AppModule_imports</title>
<polygon fill="none" stroke="black" points="1007,-78 1007,-130 1151,-130 1151,-78 1007,-78"/>
</g>
<g id="clust12" class="cluster">
<title>cluster_AppModule_bootstrap</title>
<polygon fill="none" stroke="black" points="549,-208 549,-260 673,-260 673,-208 549,-208"/>
</g>
<g id="clust2" class="cluster">
<title>cluster_AppModule_declarations</title>
<polygon fill="none" stroke="black" points="16,-78 16,-130 999,-130 999,-78 16,-78"/>
</g>
<!-- AppComponent -->
<g id="node1" class="node">
<title>AppComponent</title>
<polygon fill="#ffffb3" stroke="black" points="990.94,-122 885.06,-122 885.06,-86 990.94,-86 990.94,-122"/>
<text text-anchor="middle" x="938" y="-99.8" font-family="Times,serif" font-size="14.00">AppComponent</text>
</g>
<!-- AppModule -->
<g id="node8" class="node">
<title>AppModule</title>
<polygon fill="#8dd3c7" stroke="black" points="652.66,-187 649.66,-191 628.66,-191 625.66,-187 569.34,-187 569.34,-151 652.66,-151 652.66,-187"/>
<text text-anchor="middle" x="611" y="-164.8" font-family="Times,serif" font-size="14.00">AppModule</text>
</g>
<!-- AppComponent&#45;&gt;AppModule -->
<g id="edge1" class="edge">
<title>AppComponent&#45;&gt;AppModule</title>
<path fill="none" stroke="black" d="M938,-122.11C938,-141.34 938,-169 938,-169 938,-169 662.75,-169 662.75,-169"/>
<polygon fill="black" stroke="black" points="662.75,-165.5 652.75,-169 662.75,-172.5 662.75,-165.5"/>
</g>
<!-- BookComponent -->
<g id="node2" class="node">
<title>BookComponent</title>
<polygon fill="#ffffb3" stroke="black" points="866.67,-122 755.33,-122 755.33,-86 866.67,-86 866.67,-122"/>
<text text-anchor="middle" x="811" y="-99.8" font-family="Times,serif" font-size="14.00">BookComponent</text>
</g>
<!-- BookComponent&#45;&gt;AppModule -->
<g id="edge2" class="edge">
<title>BookComponent&#45;&gt;AppModule</title>
<path fill="none" stroke="black" d="M811,-122.03C811,-138.4 811,-160 811,-160 811,-160 662.93,-160 662.93,-160"/>
<polygon fill="black" stroke="black" points="662.93,-156.5 652.93,-160 662.93,-163.5 662.93,-156.5"/>
</g>
<!-- CartComponent -->
<g id="node3" class="node">
<title>CartComponent</title>
<polygon fill="#ffffb3" stroke="black" points="736.94,-122 631.06,-122 631.06,-86 736.94,-86 736.94,-122"/>
<text text-anchor="middle" x="684" y="-99.8" font-family="Times,serif" font-size="14.00">CartComponent</text>
</g>
<!-- CartComponent&#45;&gt;AppModule -->
<g id="edge3" class="edge">
<title>CartComponent&#45;&gt;AppModule</title>
<path fill="none" stroke="black" d="M642.06,-122.11C642.06,-122.11 642.06,-140.99 642.06,-140.99"/>
<polygon fill="black" stroke="black" points="638.56,-140.99 642.06,-150.99 645.56,-140.99 638.56,-140.99"/>
</g>
<!-- CartProductComponent -->
<g id="node4" class="node">
<title>CartProductComponent</title>
<polygon fill="#ffffb3" stroke="black" points="613.48,-122 464.52,-122 464.52,-86 613.48,-86 613.48,-122"/>
<text text-anchor="middle" x="539" y="-99.8" font-family="Times,serif" font-size="14.00">CartProductComponent</text>
</g>
<!-- CartProductComponent&#45;&gt;AppModule -->
<g id="edge4" class="edge">
<title>CartProductComponent&#45;&gt;AppModule</title>
<path fill="none" stroke="black" d="M591.33,-122.11C591.33,-122.11 591.33,-140.99 591.33,-140.99"/>
<polygon fill="black" stroke="black" points="587.83,-140.99 591.33,-150.99 594.83,-140.99 587.83,-140.99"/>
</g>
<!-- CurrencyConverterPipe -->
<g id="node5" class="node">
<title>CurrencyConverterPipe</title>
<polygon fill="#ffffb3" stroke="black" points="446.45,-122 297.55,-122 297.55,-86 446.45,-86 446.45,-122"/>
<text text-anchor="middle" x="372" y="-99.8" font-family="Times,serif" font-size="14.00">CurrencyConverterPipe</text>
</g>
<!-- CurrencyConverterPipe&#45;&gt;AppModule -->
<g id="edge5" class="edge">
<title>CurrencyConverterPipe&#45;&gt;AppModule</title>
<path fill="none" stroke="black" d="M372,-122.03C372,-138.4 372,-160 372,-160 372,-160 559.1,-160 559.1,-160"/>
<polygon fill="black" stroke="black" points="559.1,-163.5 569.1,-160 559.1,-156.5 559.1,-163.5"/>
</g>
<!-- HomeComponent -->
<g id="node6" class="node">
<title>HomeComponent</title>
<polygon fill="#ffffb3" stroke="black" points="279.55,-122 164.45,-122 164.45,-86 279.55,-86 279.55,-122"/>
<text text-anchor="middle" x="222" y="-99.8" font-family="Times,serif" font-size="14.00">HomeComponent</text>
</g>
<!-- HomeComponent&#45;&gt;AppModule -->
<g id="edge6" class="edge">
<title>HomeComponent&#45;&gt;AppModule</title>
<path fill="none" stroke="black" d="M222,-122.11C222,-141.34 222,-169 222,-169 222,-169 559,-169 559,-169"/>
<polygon fill="black" stroke="black" points="559,-172.5 569,-169 559,-165.5 559,-172.5"/>
</g>
<!-- NavbarComponent -->
<g id="node7" class="node">
<title>NavbarComponent</title>
<polygon fill="#ffffb3" stroke="black" points="146.03,-122 23.97,-122 23.97,-86 146.03,-86 146.03,-122"/>
<text text-anchor="middle" x="85" y="-99.8" font-family="Times,serif" font-size="14.00">NavbarComponent</text>
</g>
<!-- NavbarComponent&#45;&gt;AppModule -->
<g id="edge7" class="edge">
<title>NavbarComponent&#45;&gt;AppModule</title>
<path fill="none" stroke="black" d="M85,-122.29C85,-144.21 85,-178 85,-178 85,-178 559.29,-178 559.29,-178"/>
<polygon fill="black" stroke="black" points="559.29,-181.5 569.29,-178 559.29,-174.5 559.29,-181.5"/>
</g>
<!-- AppComponent  -->
<g id="node10" class="node">
<title>AppComponent </title>
<polygon fill="#80b1d3" stroke="black" points="665.44,-252 556.56,-252 556.56,-216 665.44,-216 665.44,-252"/>
<text text-anchor="middle" x="611" y="-229.8" font-family="Times,serif" font-size="14.00">AppComponent </text>
</g>
<!-- AppModule&#45;&gt;AppComponent  -->
<g id="edge9" class="edge">
<title>AppModule&#45;&gt;AppComponent </title>
<path fill="none" stroke="black" stroke-dasharray="1,5" d="M611,-187.11C611,-187.11 611,-205.99 611,-205.99"/>
<polygon fill="black" stroke="black" points="607.5,-205.99 611,-215.99 614.5,-205.99 607.5,-205.99"/>
</g>
<!-- AppRoutingModule -->
<g id="node9" class="node">
<title>AppRoutingModule</title>
<polygon fill="#8dd3c7" stroke="black" points="1143.27,-122 1140.27,-126 1119.27,-126 1116.27,-122 1014.73,-122 1014.73,-86 1143.27,-86 1143.27,-122"/>
<text text-anchor="middle" x="1079" y="-99.8" font-family="Times,serif" font-size="14.00">AppRoutingModule</text>
</g>
<!-- AppRoutingModule&#45;&gt;AppModule -->
<g id="edge8" class="edge">
<title>AppRoutingModule&#45;&gt;AppModule</title>
<path fill="none" stroke="black" d="M1079,-122.29C1079,-144.21 1079,-178 1079,-178 1079,-178 662.94,-178 662.94,-178"/>
<polygon fill="black" stroke="black" points="662.94,-174.5 652.94,-178 662.94,-181.5 662.94,-174.5"/>
</g>
</g>
</svg>
