<?xml version="1.0" encoding="UTF-8" standalone="no"?>
<!DOCTYPE svg PUBLIC "-//W3C//DTD SVG 1.1//EN"
 "http://www.w3.org/Graphics/SVG/1.1/DTD/svg11.dtd">
<!-- Generated by graphviz version 2.47.0 (20210316.0004)
 -->
<!-- Title: dependencies Pages: 1 -->
<svg width="1323pt" height="284pt"
 viewBox="0.00 0.00 1323.00 284.00" xmlns="http://www.w3.org/2000/svg" xmlns:xlink="http://www.w3.org/1999/xlink">
<g id="graph0" class="graph" transform="scale(1 1) rotate(0) translate(4 280)">
<title>dependencies</title>
<polygon fill="white" stroke="transparent" points="-4,4 -4,-280 1319,-280 1319,4 -4,4"/>
<text text-anchor="start" x="636.51" y="-42.4" font-family="Times-12" font-weight="bold" font-size="14.00">Legend</text>
<polygon fill="#ffffb3" stroke="transparent" points="423.5,-10 423.5,-30 443.5,-30 443.5,-10 423.5,-10"/>
<text text-anchor="start" x="447.13" y="-15.4" font-family="Times-12" font-size="14.00"> &#160;Declarations</text>
<polygon fill="#8dd3c7" stroke="transparent" points="536.5,-10 536.5,-30 556.5,-30 556.5,-10 536.5,-10"/>
<text text-anchor="start" x="560.23" y="-15.4" font-family="Times-12" font-size="14.00"> &#160;Module</text>
<polygon fill="#80b1d3" stroke="transparent" points="622.5,-10 622.5,-30 642.5,-30 642.5,-10 622.5,-10"/>
<text text-anchor="start" x="646.28" y="-15.4" font-family="Times-12" font-size="14.00"> &#160;Bootstrap</text>
<polygon fill="#fdb462" stroke="transparent" points="719.5,-10 719.5,-30 739.5,-30 739.5,-10 719.5,-10"/>
<text text-anchor="start" x="743.17" y="-15.4" font-family="Times-12" font-size="14.00"> &#160;Providers</text>
<polygon fill="#fb8072" stroke="transparent" points="815.5,-10 815.5,-30 835.5,-30 835.5,-10 815.5,-10"/>
<text text-anchor="start" x="839.23" y="-15.4" font-family="Times-12" font-size="14.00"> &#160;Exports</text>
<g id="clust1" class="cluster">
<title>cluster_AppModule</title>
<polygon fill="none" stroke="black" stroke-dasharray="1,5" points="8,-70 8,-268 1307,-268 1307,-70 8,-70"/>
</g>
<g id="clust11" class="cluster">
<title>cluster_AppModule_imports</title>
<polygon fill="none" stroke="black" points="1155,-78 1155,-130 1299,-130 1299,-78 1155,-78"/>
</g>
<g id="clust13" class="cluster">
<title>cluster_AppModule_bootstrap</title>
<polygon fill="none" stroke="black" points="625,-208 625,-260 749,-260 749,-208 625,-208"/>
</g>
<g id="clust2" class="cluster">
<title>cluster_AppModule_declarations</title>
<polygon fill="none" stroke="black" points="16,-78 16,-130 1147,-130 1147,-78 16,-78"/>
</g>
<!-- AppComponent -->
<g id="node1" class="node">
<title>AppComponent</title>
<polygon fill="#ffffb3" stroke="black" points="1138.94,-122 1033.06,-122 1033.06,-86 1138.94,-86 1138.94,-122"/>
<text text-anchor="middle" x="1086" y="-99.8" font-family="Times,serif" font-size="14.00">AppComponent</text>
</g>
<!-- AppModule -->
<g id="node9" class="node">
<title>AppModule</title>
<polygon fill="#8dd3c7" stroke="black" points="728.66,-187 725.66,-191 704.66,-191 701.66,-187 645.34,-187 645.34,-151 728.66,-151 728.66,-187"/>
<text text-anchor="middle" x="687" y="-164.8" font-family="Times,serif" font-size="14.00">AppModule</text>
</g>
<!-- AppComponent&#45;&gt;AppModule -->
<g id="edge1" class="edge">
<title>AppComponent&#45;&gt;AppModule</title>
<path fill="none" stroke="black" d="M1086,-122.13C1086,-142.57 1086,-173 1086,-173 1086,-173 738.95,-173 738.95,-173"/>
<polygon fill="black" stroke="black" points="738.95,-169.5 728.95,-173 738.95,-176.5 738.95,-169.5"/>
</g>
<!-- BookComponent -->
<g id="node2" class="node">
<title>BookComponent</title>
<polygon fill="#ffffb3" stroke="black" points="1014.67,-122 903.33,-122 903.33,-86 1014.67,-86 1014.67,-122"/>
<text text-anchor="middle" x="959" y="-99.8" font-family="Times,serif" font-size="14.00">BookComponent</text>
</g>
<!-- BookComponent&#45;&gt;AppModule -->
<g id="edge2" class="edge">
<title>BookComponent&#45;&gt;AppModule</title>
<path fill="none" stroke="black" d="M959,-122.27C959,-140.56 959,-166 959,-166 959,-166 738.9,-166 738.9,-166"/>
<polygon fill="black" stroke="black" points="738.9,-162.5 728.9,-166 738.9,-169.5 738.9,-162.5"/>
</g>
<!-- CartComponent -->
<g id="node3" class="node">
<title>CartComponent</title>
<polygon fill="#ffffb3" stroke="black" points="884.94,-122 779.06,-122 779.06,-86 884.94,-86 884.94,-122"/>
<text text-anchor="middle" x="832" y="-99.8" font-family="Times,serif" font-size="14.00">CartComponent</text>
</g>
<!-- CartComponent&#45;&gt;AppModule -->
<g id="edge3" class="edge">
<title>CartComponent&#45;&gt;AppModule</title>
<path fill="none" stroke="black" d="M832,-122.01C832,-138.05 832,-159 832,-159 832,-159 738.94,-159 738.94,-159"/>
<polygon fill="black" stroke="black" points="738.94,-155.5 728.94,-159 738.94,-162.5 738.94,-155.5"/>
</g>
<!-- CartProductComponent -->
<g id="node4" class="node">
<title>CartProductComponent</title>
<polygon fill="#ffffb3" stroke="black" points="761.48,-122 612.52,-122 612.52,-86 761.48,-86 761.48,-122"/>
<text text-anchor="middle" x="687" y="-99.8" font-family="Times,serif" font-size="14.00">CartProductComponent</text>
</g>
<!-- CartProductComponent&#45;&gt;AppModule -->
<g id="edge4" class="edge">
<title>CartProductComponent&#45;&gt;AppModule</title>
<path fill="none" stroke="black" d="M687,-122.11C687,-122.11 687,-140.99 687,-140.99"/>
<polygon fill="black" stroke="black" points="683.5,-140.99 687,-150.99 690.5,-140.99 683.5,-140.99"/>
</g>
<!-- CurrencyConverterPipe -->
<g id="node5" class="node">
<title>CurrencyConverterPipe</title>
<polygon fill="#ffffb3" stroke="black" points="594.45,-122 445.55,-122 445.55,-86 594.45,-86 594.45,-122"/>
<text text-anchor="middle" x="520" y="-99.8" font-family="Times,serif" font-size="14.00">CurrencyConverterPipe</text>
</g>
<!-- CurrencyConverterPipe&#45;&gt;AppModule -->
<g id="edge5" class="edge">
<title>CurrencyConverterPipe&#45;&gt;AppModule</title>
<path fill="none" stroke="black" d="M520,-122.01C520,-138.05 520,-159 520,-159 520,-159 635.29,-159 635.29,-159"/>
<polygon fill="black" stroke="black" points="635.29,-162.5 645.29,-159 635.29,-155.5 635.29,-162.5"/>
</g>
<!-- HomeComponent -->
<g id="node6" class="node">
<title>HomeComponent</title>
<polygon fill="#ffffb3" stroke="black" points="427.55,-122 312.45,-122 312.45,-86 427.55,-86 427.55,-122"/>
<text text-anchor="middle" x="370" y="-99.8" font-family="Times,serif" font-size="14.00">HomeComponent</text>
</g>
<!-- HomeComponent&#45;&gt;AppModule -->
<g id="edge6" class="edge">
<title>HomeComponent&#45;&gt;AppModule</title>
<path fill="none" stroke="black" d="M370,-122.27C370,-140.56 370,-166 370,-166 370,-166 635.23,-166 635.23,-166"/>
<polygon fill="black" stroke="black" points="635.23,-169.5 645.23,-166 635.23,-162.5 635.23,-169.5"/>
</g>
<!-- NavbarComponent -->
<g id="node7" class="node">
<title>NavbarComponent</title>
<polygon fill="#ffffb3" stroke="black" points="294.03,-122 171.97,-122 171.97,-86 294.03,-86 294.03,-122"/>
<text text-anchor="middle" x="233" y="-99.8" font-family="Times,serif" font-size="14.00">NavbarComponent</text>
</g>
<!-- NavbarComponent&#45;&gt;AppModule -->
<g id="edge7" class="edge">
<title>NavbarComponent&#45;&gt;AppModule</title>
<path fill="none" stroke="black" d="M233,-122.13C233,-142.57 233,-173 233,-173 233,-173 635.1,-173 635.1,-173"/>
<polygon fill="black" stroke="black" points="635.1,-176.5 645.1,-173 635.1,-169.5 635.1,-176.5"/>
</g>
<!-- SkeletonComponent -->
<g id="node8" class="node">
<title>SkeletonComponent</title>
<polygon fill="#ffffb3" stroke="black" points="154.33,-122 23.67,-122 23.67,-86 154.33,-86 154.33,-122"/>
<text text-anchor="middle" x="89" y="-99.8" font-family="Times,serif" font-size="14.00">SkeletonComponent</text>
</g>
<!-- SkeletonComponent&#45;&gt;AppModule -->
<g id="edge8" class="edge">
<title>SkeletonComponent&#45;&gt;AppModule</title>
<path fill="none" stroke="black" d="M89,-122.01C89,-144.49 89,-180 89,-180 89,-180 634.95,-180 634.95,-180"/>
<polygon fill="black" stroke="black" points="634.95,-183.5 644.95,-180 634.95,-176.5 634.95,-183.5"/>
</g>
<!-- AppComponent  -->
<g id="node11" class="node">
<title>AppComponent </title>
<polygon fill="#80b1d3" stroke="black" points="741.44,-252 632.56,-252 632.56,-216 741.44,-216 741.44,-252"/>
<text text-anchor="middle" x="687" y="-229.8" font-family="Times,serif" font-size="14.00">AppComponent </text>
</g>
<!-- AppModule&#45;&gt;AppComponent  -->
<g id="edge10" class="edge">
<title>AppModule&#45;&gt;AppComponent </title>
<path fill="none" stroke="black" stroke-dasharray="1,5" d="M687,-187.11C687,-187.11 687,-205.99 687,-205.99"/>
<polygon fill="black" stroke="black" points="683.5,-205.99 687,-215.99 690.5,-205.99 683.5,-205.99"/>
</g>
<!-- AppRoutingModule -->
<g id="node10" class="node">
<title>AppRoutingModule</title>
<polygon fill="#8dd3c7" stroke="black" points="1291.27,-122 1288.27,-126 1267.27,-126 1264.27,-122 1162.73,-122 1162.73,-86 1291.27,-86 1291.27,-122"/>
<text text-anchor="middle" x="1227" y="-99.8" font-family="Times,serif" font-size="14.00">AppRoutingModule</text>
</g>
<!-- AppRoutingModule&#45;&gt;AppModule -->
<g id="edge9" class="edge">
<title>AppRoutingModule&#45;&gt;AppModule</title>
<path fill="none" stroke="black" d="M1227,-122.01C1227,-144.49 1227,-180 1227,-180 1227,-180 738.92,-180 738.92,-180"/>
<polygon fill="black" stroke="black" points="738.92,-176.5 728.92,-180 738.92,-183.5 738.92,-176.5"/>
</g>
</g>
</svg>
