<?xml version="1.0" encoding="UTF-8" standalone="no"?>
<!DOCTYPE svg PUBLIC "-//W3C//DTD SVG 1.1//EN"
 "http://www.w3.org/Graphics/SVG/1.1/DTD/svg11.dtd">
<!-- Generated by graphviz version 2.47.0 (20210316.0004)
 -->
<!-- Title: dependencies Pages: 1 -->
<svg width="1175pt" height="284pt"
 viewBox="0.00 0.00 1175.00 284.00" xmlns="http://www.w3.org/2000/svg" xmlns:xlink="http://www.w3.org/1999/xlink">
<g id="graph0" class="graph" transform="scale(1 1) rotate(0) translate(4 280)">
<title>dependencies</title>
<polygon fill="white" stroke="transparent" points="-4,4 -4,-280 1171,-280 1171,4 -4,4"/>
<text text-anchor="start" x="562.51" y="-42.4" font-family="Times-12" font-weight="bold" font-size="14.00">Legend</text>
<polygon fill="#ffffb3" stroke="transparent" points="349.5,-10 349.5,-30 369.5,-30 369.5,-10 349.5,-10"/>
<text text-anchor="start" x="373.13" y="-15.4" font-family="Times-12" font-size="14.00"> &#160;Declarations</text>
<polygon fill="#8dd3c7" stroke="transparent" points="462.5,-10 462.5,-30 482.5,-30 482.5,-10 462.5,-10"/>
<text text-anchor="start" x="486.23" y="-15.4" font-family="Times-12" font-size="14.00"> &#160;Module</text>
<polygon fill="#80b1d3" stroke="transparent" points="548.5,-10 548.5,-30 568.5,-30 568.5,-10 548.5,-10"/>
<text text-anchor="start" x="572.28" y="-15.4" font-family="Times-12" font-size="14.00"> &#160;Bootstrap</text>
<polygon fill="#fdb462" stroke="transparent" points="645.5,-10 645.5,-30 665.5,-30 665.5,-10 645.5,-10"/>
<text text-anchor="start" x="669.17" y="-15.4" font-family="Times-12" font-size="14.00"> &#160;Providers</text>
<polygon fill="#fb8072" stroke="transparent" points="741.5,-10 741.5,-30 761.5,-30 761.5,-10 741.5,-10"/>
<text text-anchor="start" x="765.23" y="-15.4" font-family="Times-12" font-size="14.00"> &#160;Exports</text>
<g id="clust1" class="cluster">
<title>cluster_AppModule</title>
<polygon fill="none" stroke="black" stroke-dasharray="1,5" points="8,-70 8,-268 1159,-268 1159,-70 8,-70"/>
</g>
<g id="clust2" class="cluster">
<title>cluster_AppModule_declarations</title>
<polygon fill="none" stroke="black" points="168,-78 168,-130 1151,-130 1151,-78 168,-78"/>
</g>
<g id="clust10" class="cluster">
<title>cluster_AppModule_imports</title>
<polygon fill="none" stroke="black" points="16,-78 16,-130 160,-130 160,-78 16,-78"/>
</g>
<g id="clust12" class="cluster">
<title>cluster_AppModule_bootstrap</title>
<polygon fill="none" stroke="black" points="545,-208 545,-260 669,-260 669,-208 545,-208"/>
</g>
<!-- AppComponent -->
<g id="node1" class="node">
<title>AppComponent</title>
<polygon fill="#ffffb3" stroke="black" points="1142.94,-122 1037.06,-122 1037.06,-86 1142.94,-86 1142.94,-122"/>
<text text-anchor="middle" x="1090" y="-99.8" font-family="Times,serif" font-size="14.00">AppComponent</text>
</g>
<!-- AppModule -->
<g id="node8" class="node">
<title>AppModule</title>
<polygon fill="#8dd3c7" stroke="black" points="648.66,-187 645.66,-191 624.66,-191 621.66,-187 565.34,-187 565.34,-151 648.66,-151 648.66,-187"/>
<text text-anchor="middle" x="607" y="-164.8" font-family="Times,serif" font-size="14.00">AppModule</text>
</g>
<!-- AppComponent&#45;&gt;AppModule -->
<g id="edge1" class="edge">
<title>AppComponent&#45;&gt;AppModule</title>
<path fill="none" stroke="black" d="M1090,-122.29C1090,-144.21 1090,-178 1090,-178 1090,-178 659.02,-178 659.02,-178"/>
<polygon fill="black" stroke="black" points="659.02,-174.5 649.02,-178 659.02,-181.5 659.02,-174.5"/>
</g>
<!-- BookComponent -->
<g id="node2" class="node">
<title>BookComponent</title>
<polygon fill="#ffffb3" stroke="black" points="1018.67,-122 907.33,-122 907.33,-86 1018.67,-86 1018.67,-122"/>
<text text-anchor="middle" x="963" y="-99.8" font-family="Times,serif" font-size="14.00">BookComponent</text>
</g>
<!-- BookComponent&#45;&gt;AppModule -->
<g id="edge2" class="edge">
<title>BookComponent&#45;&gt;AppModule</title>
<path fill="none" stroke="black" d="M963,-122.11C963,-141.34 963,-169 963,-169 963,-169 658.88,-169 658.88,-169"/>
<polygon fill="black" stroke="black" points="658.88,-165.5 648.88,-169 658.88,-172.5 658.88,-165.5"/>
</g>
<!-- CartComponent -->
<g id="node3" class="node">
<title>CartComponent</title>
<polygon fill="#ffffb3" stroke="black" points="888.94,-122 783.06,-122 783.06,-86 888.94,-86 888.94,-122"/>
<text text-anchor="middle" x="836" y="-99.8" font-family="Times,serif" font-size="14.00">CartComponent</text>
</g>
<!-- CartComponent&#45;&gt;AppModule -->
<g id="edge3" class="edge">
<title>CartComponent&#45;&gt;AppModule</title>
<path fill="none" stroke="black" d="M836,-122.03C836,-138.4 836,-160 836,-160 836,-160 658.74,-160 658.74,-160"/>
<polygon fill="black" stroke="black" points="658.74,-156.5 648.74,-160 658.74,-163.5 658.74,-156.5"/>
</g>
<!-- CartProductComponent -->
<g id="node4" class="node">
<title>CartProductComponent</title>
<polygon fill="#ffffb3" stroke="black" points="765.48,-122 616.52,-122 616.52,-86 765.48,-86 765.48,-122"/>
<text text-anchor="middle" x="691" y="-99.8" font-family="Times,serif" font-size="14.00">CartProductComponent</text>
</g>
<!-- CartProductComponent&#45;&gt;AppModule -->
<g id="edge4" class="edge">
<title>CartProductComponent&#45;&gt;AppModule</title>
<path fill="none" stroke="black" d="M632.67,-122.11C632.67,-122.11 632.67,-140.99 632.67,-140.99"/>
<polygon fill="black" stroke="black" points="629.17,-140.99 632.67,-150.99 636.17,-140.99 629.17,-140.99"/>
</g>
<!-- CurrencyConverterPipe -->
<g id="node5" class="node">
<title>CurrencyConverterPipe</title>
<polygon fill="#ffffb3" stroke="black" points="598.45,-122 449.55,-122 449.55,-86 598.45,-86 598.45,-122"/>
<text text-anchor="middle" x="524" y="-99.8" font-family="Times,serif" font-size="14.00">CurrencyConverterPipe</text>
</g>
<!-- CurrencyConverterPipe&#45;&gt;AppModule -->
<g id="edge5" class="edge">
<title>CurrencyConverterPipe&#45;&gt;AppModule</title>
<path fill="none" stroke="black" d="M581.82,-122.11C581.82,-122.11 581.82,-140.99 581.82,-140.99"/>
<polygon fill="black" stroke="black" points="578.32,-140.99 581.82,-150.99 585.32,-140.99 578.32,-140.99"/>
</g>
<!-- HomeComponent -->
<g id="node6" class="node">
<title>HomeComponent</title>
<polygon fill="#ffffb3" stroke="black" points="431.55,-122 316.45,-122 316.45,-86 431.55,-86 431.55,-122"/>
<text text-anchor="middle" x="374" y="-99.8" font-family="Times,serif" font-size="14.00">HomeComponent</text>
</g>
<!-- HomeComponent&#45;&gt;AppModule -->
<g id="edge6" class="edge">
<title>HomeComponent&#45;&gt;AppModule</title>
<path fill="none" stroke="black" d="M374,-122.03C374,-138.4 374,-160 374,-160 374,-160 555.08,-160 555.08,-160"/>
<polygon fill="black" stroke="black" points="555.08,-163.5 565.08,-160 555.08,-156.5 555.08,-163.5"/>
</g>
<!-- NavbarComponent -->
<g id="node7" class="node">
<title>NavbarComponent</title>
<polygon fill="#ffffb3" stroke="black" points="298.03,-122 175.97,-122 175.97,-86 298.03,-86 298.03,-122"/>
<text text-anchor="middle" x="237" y="-99.8" font-family="Times,serif" font-size="14.00">NavbarComponent</text>
</g>
<!-- NavbarComponent&#45;&gt;AppModule -->
<g id="edge7" class="edge">
<title>NavbarComponent&#45;&gt;AppModule</title>
<path fill="none" stroke="black" d="M237,-122.11C237,-141.34 237,-169 237,-169 237,-169 555.28,-169 555.28,-169"/>
<polygon fill="black" stroke="black" points="555.28,-172.5 565.28,-169 555.28,-165.5 555.28,-172.5"/>
</g>
<!-- AppComponent  -->
<g id="node10" class="node">
<title>AppComponent </title>
<polygon fill="#80b1d3" stroke="black" points="661.44,-252 552.56,-252 552.56,-216 661.44,-216 661.44,-252"/>
<text text-anchor="middle" x="607" y="-229.8" font-family="Times,serif" font-size="14.00">AppComponent </text>
</g>
<!-- AppModule&#45;&gt;AppComponent  -->
<g id="edge9" class="edge">
<title>AppModule&#45;&gt;AppComponent </title>
<path fill="none" stroke="black" stroke-dasharray="1,5" d="M607,-187.11C607,-187.11 607,-205.99 607,-205.99"/>
<polygon fill="black" stroke="black" points="603.5,-205.99 607,-215.99 610.5,-205.99 603.5,-205.99"/>
</g>
<!-- AppRoutingModule -->
<g id="node9" class="node">
<title>AppRoutingModule</title>
<polygon fill="#8dd3c7" stroke="black" points="152.27,-122 149.27,-126 128.27,-126 125.27,-122 23.73,-122 23.73,-86 152.27,-86 152.27,-122"/>
<text text-anchor="middle" x="88" y="-99.8" font-family="Times,serif" font-size="14.00">AppRoutingModule</text>
</g>
<!-- AppRoutingModule&#45;&gt;AppModule -->
<g id="edge8" class="edge">
<title>AppRoutingModule&#45;&gt;AppModule</title>
<path fill="none" stroke="black" d="M88,-122.29C88,-144.21 88,-178 88,-178 88,-178 554.97,-178 554.97,-178"/>
<polygon fill="black" stroke="black" points="554.97,-181.5 564.97,-178 554.97,-174.5 554.97,-181.5"/>
</g>
</g>
</svg>
