<?xml version="1.0" encoding="UTF-8" standalone="no"?>
<!DOCTYPE svg PUBLIC "-//W3C//DTD SVG 1.1//EN"
 "http://www.w3.org/Graphics/SVG/1.1/DTD/svg11.dtd">
<!-- Generated by graphviz version 2.47.0 (20210316.0004)
 -->
<!-- Title: dependencies Pages: 1 -->
<svg width="1323pt" height="284pt"
 viewBox="0.00 0.00 1323.00 284.00" xmlns="http://www.w3.org/2000/svg" xmlns:xlink="http://www.w3.org/1999/xlink">
<g id="graph0" class="graph" transform="scale(1 1) rotate(0) translate(4 280)">
<title>dependencies</title>
<polygon fill="white" stroke="transparent" points="-4,4 -4,-280 1319,-280 1319,4 -4,4"/>
<text text-anchor="start" x="636.51" y="-42.4" font-family="Times-12" font-weight="bold" font-size="14.00">Legend</text>
<polygon fill="#ffffb3" stroke="transparent" points="423.5,-10 423.5,-30 443.5,-30 443.5,-10 423.5,-10"/>
<text text-anchor="start" x="447.13" y="-15.4" font-family="Times-12" font-size="14.00"> &#160;Declarations</text>
<polygon fill="#8dd3c7" stroke="transparent" points="536.5,-10 536.5,-30 556.5,-30 556.5,-10 536.5,-10"/>
<text text-anchor="start" x="560.23" y="-15.4" font-family="Times-12" font-size="14.00"> &#160;Module</text>
<polygon fill="#80b1d3" stroke="transparent" points="622.5,-10 622.5,-30 642.5,-30 642.5,-10 622.5,-10"/>
<text text-anchor="start" x="646.28" y="-15.4" font-family="Times-12" font-size="14.00"> &#160;Bootstrap</text>
<polygon fill="#fdb462" stroke="transparent" points="719.5,-10 719.5,-30 739.5,-30 739.5,-10 719.5,-10"/>
<text text-anchor="start" x="743.17" y="-15.4" font-family="Times-12" font-size="14.00"> &#160;Providers</text>
<polygon fill="#fb8072" stroke="transparent" points="815.5,-10 815.5,-30 835.5,-30 835.5,-10 815.5,-10"/>
<text text-anchor="start" x="839.23" y="-15.4" font-family="Times-12" font-size="14.00"> &#160;Exports</text>
<g id="clust1" class="cluster">
<title>cluster_AppModule</title>
<polygon fill="none" stroke="black" stroke-dasharray="1,5" points="8,-70 8,-268 1307,-268 1307,-70 8,-70"/>
</g>
<g id="clust2" class="cluster">
<title>cluster_AppModule_declarations</title>
<polygon fill="none" stroke="black" points="168,-78 168,-130 1299,-130 1299,-78 168,-78"/>
</g>
<g id="clust11" class="cluster">
<title>cluster_AppModule_imports</title>
<polygon fill="none" stroke="black" points="16,-78 16,-130 160,-130 160,-78 16,-78"/>
</g>
<g id="clust13" class="cluster">
<title>cluster_AppModule_bootstrap</title>
<polygon fill="none" stroke="black" points="610,-208 610,-260 734,-260 734,-208 610,-208"/>
</g>
<!-- AppComponent -->
<g id="node1" class="node">
<title>AppComponent</title>
<polygon fill="#ffffb3" stroke="black" points="1290.94,-122 1185.06,-122 1185.06,-86 1290.94,-86 1290.94,-122"/>
<text text-anchor="middle" x="1238" y="-99.8" font-family="Times,serif" font-size="14.00">AppComponent</text>
</g>
<!-- AppModule -->
<g id="node9" class="node">
<title>AppModule</title>
<polygon fill="#8dd3c7" stroke="black" points="713.66,-187 710.66,-191 689.66,-191 686.66,-187 630.34,-187 630.34,-151 713.66,-151 713.66,-187"/>
<text text-anchor="middle" x="672" y="-164.8" font-family="Times,serif" font-size="14.00">AppModule</text>
</g>
<!-- AppComponent&#45;&gt;AppModule -->
<g id="edge1" class="edge">
<title>AppComponent&#45;&gt;AppModule</title>
<path fill="none" stroke="black" d="M1238,-122.01C1238,-144.49 1238,-180 1238,-180 1238,-180 724.08,-180 724.08,-180"/>
<polygon fill="black" stroke="black" points="724.08,-176.5 714.08,-180 724.08,-183.5 724.08,-176.5"/>
</g>
<!-- BookComponent -->
<g id="node2" class="node">
<title>BookComponent</title>
<polygon fill="#ffffb3" stroke="black" points="1166.67,-122 1055.33,-122 1055.33,-86 1166.67,-86 1166.67,-122"/>
<text text-anchor="middle" x="1111" y="-99.8" font-family="Times,serif" font-size="14.00">BookComponent</text>
</g>
<!-- BookComponent&#45;&gt;AppModule -->
<g id="edge2" class="edge">
<title>BookComponent&#45;&gt;AppModule</title>
<path fill="none" stroke="black" d="M1111,-122.13C1111,-142.57 1111,-173 1111,-173 1111,-173 723.7,-173 723.7,-173"/>
<polygon fill="black" stroke="black" points="723.7,-169.5 713.7,-173 723.7,-176.5 723.7,-169.5"/>
</g>
<!-- CartComponent -->
<g id="node3" class="node">
<title>CartComponent</title>
<polygon fill="#ffffb3" stroke="black" points="1036.94,-122 931.06,-122 931.06,-86 1036.94,-86 1036.94,-122"/>
<text text-anchor="middle" x="984" y="-99.8" font-family="Times,serif" font-size="14.00">CartComponent</text>
</g>
<!-- CartComponent&#45;&gt;AppModule -->
<g id="edge3" class="edge">
<title>CartComponent&#45;&gt;AppModule</title>
<path fill="none" stroke="black" d="M984,-122.27C984,-140.56 984,-166 984,-166 984,-166 723.75,-166 723.75,-166"/>
<polygon fill="black" stroke="black" points="723.75,-162.5 713.75,-166 723.75,-169.5 723.75,-162.5"/>
</g>
<!-- CartProductComponent -->
<g id="node4" class="node">
<title>CartProductComponent</title>
<polygon fill="#ffffb3" stroke="black" points="913.48,-122 764.52,-122 764.52,-86 913.48,-86 913.48,-122"/>
<text text-anchor="middle" x="839" y="-99.8" font-family="Times,serif" font-size="14.00">CartProductComponent</text>
</g>
<!-- CartProductComponent&#45;&gt;AppModule -->
<g id="edge4" class="edge">
<title>CartProductComponent&#45;&gt;AppModule</title>
<path fill="none" stroke="black" d="M839,-122.01C839,-138.05 839,-159 839,-159 839,-159 723.71,-159 723.71,-159"/>
<polygon fill="black" stroke="black" points="723.71,-155.5 713.71,-159 723.71,-162.5 723.71,-155.5"/>
</g>
<!-- CurrencyConverterPipe -->
<g id="node5" class="node">
<title>CurrencyConverterPipe</title>
<polygon fill="#ffffb3" stroke="black" points="746.45,-122 597.55,-122 597.55,-86 746.45,-86 746.45,-122"/>
<text text-anchor="middle" x="672" y="-99.8" font-family="Times,serif" font-size="14.00">CurrencyConverterPipe</text>
</g>
<!-- CurrencyConverterPipe&#45;&gt;AppModule -->
<g id="edge5" class="edge">
<title>CurrencyConverterPipe&#45;&gt;AppModule</title>
<path fill="none" stroke="black" d="M672,-122.11C672,-122.11 672,-140.99 672,-140.99"/>
<polygon fill="black" stroke="black" points="668.5,-140.99 672,-150.99 675.5,-140.99 668.5,-140.99"/>
</g>
<!-- HomeComponent -->
<g id="node6" class="node">
<title>HomeComponent</title>
<polygon fill="#ffffb3" stroke="black" points="579.55,-122 464.45,-122 464.45,-86 579.55,-86 579.55,-122"/>
<text text-anchor="middle" x="522" y="-99.8" font-family="Times,serif" font-size="14.00">HomeComponent</text>
</g>
<!-- HomeComponent&#45;&gt;AppModule -->
<g id="edge6" class="edge">
<title>HomeComponent&#45;&gt;AppModule</title>
<path fill="none" stroke="black" d="M522,-122.01C522,-138.05 522,-159 522,-159 522,-159 620.22,-159 620.22,-159"/>
<polygon fill="black" stroke="black" points="620.22,-162.5 630.22,-159 620.22,-155.5 620.22,-162.5"/>
</g>
<!-- NavbarComponent -->
<g id="node7" class="node">
<title>NavbarComponent</title>
<polygon fill="#ffffb3" stroke="black" points="446.03,-122 323.97,-122 323.97,-86 446.03,-86 446.03,-122"/>
<text text-anchor="middle" x="385" y="-99.8" font-family="Times,serif" font-size="14.00">NavbarComponent</text>
</g>
<!-- NavbarComponent&#45;&gt;AppModule -->
<g id="edge7" class="edge">
<title>NavbarComponent&#45;&gt;AppModule</title>
<path fill="none" stroke="black" d="M385,-122.27C385,-140.56 385,-166 385,-166 385,-166 620.27,-166 620.27,-166"/>
<polygon fill="black" stroke="black" points="620.27,-169.5 630.27,-166 620.27,-162.5 620.27,-169.5"/>
</g>
<!-- SkeletonComponent -->
<g id="node8" class="node">
<title>SkeletonComponent</title>
<polygon fill="#ffffb3" stroke="black" points="306.33,-122 175.67,-122 175.67,-86 306.33,-86 306.33,-122"/>
<text text-anchor="middle" x="241" y="-99.8" font-family="Times,serif" font-size="14.00">SkeletonComponent</text>
</g>
<!-- SkeletonComponent&#45;&gt;AppModule -->
<g id="edge8" class="edge">
<title>SkeletonComponent&#45;&gt;AppModule</title>
<path fill="none" stroke="black" d="M241,-122.13C241,-142.57 241,-173 241,-173 241,-173 620.28,-173 620.28,-173"/>
<polygon fill="black" stroke="black" points="620.28,-176.5 630.28,-173 620.28,-169.5 620.28,-176.5"/>
</g>
<!-- AppComponent  -->
<g id="node11" class="node">
<title>AppComponent </title>
<polygon fill="#80b1d3" stroke="black" points="726.44,-252 617.56,-252 617.56,-216 726.44,-216 726.44,-252"/>
<text text-anchor="middle" x="672" y="-229.8" font-family="Times,serif" font-size="14.00">AppComponent </text>
</g>
<!-- AppModule&#45;&gt;AppComponent  -->
<g id="edge10" class="edge">
<title>AppModule&#45;&gt;AppComponent </title>
<path fill="none" stroke="black" stroke-dasharray="1,5" d="M672,-187.11C672,-187.11 672,-205.99 672,-205.99"/>
<polygon fill="black" stroke="black" points="668.5,-205.99 672,-215.99 675.5,-205.99 668.5,-205.99"/>
</g>
<!-- AppRoutingModule -->
<g id="node10" class="node">
<title>AppRoutingModule</title>
<polygon fill="#8dd3c7" stroke="black" points="152.27,-122 149.27,-126 128.27,-126 125.27,-122 23.73,-122 23.73,-86 152.27,-86 152.27,-122"/>
<text text-anchor="middle" x="88" y="-99.8" font-family="Times,serif" font-size="14.00">AppRoutingModule</text>
</g>
<!-- AppRoutingModule&#45;&gt;AppModule -->
<g id="edge9" class="edge">
<title>AppRoutingModule&#45;&gt;AppModule</title>
<path fill="none" stroke="black" d="M88,-122.01C88,-144.49 88,-180 88,-180 88,-180 620,-180 620,-180"/>
<polygon fill="black" stroke="black" points="620,-183.5 630,-180 620,-176.5 620,-183.5"/>
</g>
</g>
</svg>
